<svg width="34" height="36" viewBox="0 0 34 36" fill="none" xmlns="http://www.w3.org/2000/svg">
<path d="M26.7551 28.8611C21.4401 33.6688 13.4861 33.7424 8.09757 29.3536L12.3687 29.1919C12.92 29.1699 13.3464 28.7141 13.3243 28.1627C13.3023 27.6261 12.8612 27.2071 12.3319 27.2071C12.3172 27.2071 12.3098 27.2071 12.2951 27.2071L5.73781 27.4497C5.20116 27.4717 4.78214 27.9054 4.78214 28.4421V28.5156C4.78214 28.5303 4.78214 28.5377 4.78214 28.5524V28.5597L5.02473 35.0435C5.04679 35.5949 5.50992 36.0213 6.05391 35.9992C6.60526 35.9771 7.03163 35.5214 7.00958 34.97L6.8552 30.9048C9.52371 33.0881 12.8097 34.3525 16.3236 34.5289C20.6756 34.7495 24.8585 33.2572 28.0857 30.3314C32.5259 26.3102 34.4078 20.194 32.9963 14.3717C32.8861 13.916 32.4817 13.6146 32.0333 13.6146C31.9525 13.6146 31.8789 13.6219 31.7981 13.644C31.2688 13.7763 30.938 14.3129 31.0703 14.8422C32.3053 19.9587 30.6586 25.3325 26.7551 28.8611Z" fill="#FFF8E1"/>
<path d="M1.00357 21.6275C1.13589 22.1568 1.67253 22.4876 2.20183 22.3552C2.73112 22.2229 3.06192 21.6863 2.9296 21.157C1.68724 16.0405 3.34127 10.6667 7.2448 7.13809C9.98683 4.66071 13.4272 3.4404 16.8529 3.4404C20.1242 3.4404 23.3882 4.55044 26.02 6.74112L21.6974 7.13074C21.1534 7.1822 20.7491 7.66003 20.8006 8.21138C20.852 8.76272 21.3298 9.15969 21.8812 9.10823L28.4165 8.52013C28.9605 8.46867 29.3648 7.99084 29.3133 7.43949L28.7252 0.904205C28.6811 0.389614 28.2474 -1.90735e-06 27.7402 -1.90735e-06C27.7108 -1.90735e-06 27.6813 -1.90735e-06 27.6519 0.00734901C27.108 0.0588093 26.7036 0.53664 26.7551 1.08799L27.1079 5.06503C24.4394 2.90375 21.1681 1.64668 17.6763 1.47025C17.3969 1.45555 17.1176 1.4482 16.8456 1.4482C12.795 1.4482 8.94295 2.93316 5.91422 5.66784C1.47405 9.68898 -0.407877 15.7979 1.00357 21.6275Z" fill="#FFF8E1"/>
</svg>
